<svg xmlns="http://www.w3.org/2000/svg" xmlns:xlink="http://www.w3.org/1999/xlink" viewBox="0 0 48 48"><defs><style>.cls-1{fill:none;}.cls-2{opacity:0.9;}.cls-3{clip-path:url(#clip-path);}.cls-4{fill:#0075c9;}</style><clipPath id="clip-path"><rect id="SVGID" class="cls-1" x="8.35" y="0.96" width="31.35" height="46.12"/></clipPath></defs><title>Ресурс 12Capa6</title><g id="Слой_2" data-name="Слой 2"><g id="Icon"><rect class="cls-1" width="48" height="48"/><g class="cls-2"><g class="cls-3"><path class="cls-4" d="M27.81,44.13a.9.9,0,0,0-1.17.5,1.05,1.05,0,0,1-1,.65H22.38a1.05,1.05,0,0,1-1-.65.9.9,0,1,0-1.67.67,2.83,2.83,0,0,0,2.65,1.78h3.29a2.83,2.83,0,0,0,2.65-1.78A.9.9,0,0,0,27.81,44.13Z"/><path class="cls-4" d="M38.39,39.49a4.44,4.44,0,0,0-2.13-3,4.48,4.48,0,0,0,1.6-4.14,11.36,11.36,0,0,0-6.3-8.54,10.33,10.33,0,0,0-4.72-17,3.9,3.9,0,0,0,.91-2.52A3.33,3.33,0,0,0,24.43,1h0a3,3,0,0,0-1.95.68,2.46,2.46,0,0,0-.89,1.91.9.9,0,0,0,1.8,0A.67.67,0,0,1,23.64,3a1.22,1.22,0,0,1,.79-.25h0A1.52,1.52,0,0,1,26,4.28a2.13,2.13,0,0,1-2.12,2.13h-.07a10.33,10.33,0,0,0-7.28,17.4,11.36,11.36,0,0,0-6.3,8.54,4.48,4.48,0,0,0,1.6,4.14,4.45,4.45,0,0,0-1.27,6.59l1.93,2.47a4,4,0,0,0,3.16,1.53,4,4,0,0,0,2-.53,4,4,0,0,0,1.71-5l-1.17-2.9a4.44,4.44,0,0,0-.27-.56h6.61a.9.9,0,0,0,0-1.8H16.15v-1.9A.44.44,0,0,1,16.6,34H31.45a.44.44,0,0,1,.44.44v2a4.44,4.44,0,0,0-2,2.24l-1.17,2.9a4,4,0,0,0,1.71,5,4,4,0,0,0,2,.53,4,4,0,0,0,3.16-1.53l1.93-2.47A4.44,4.44,0,0,0,38.39,39.49ZM15.49,16.75A8.54,8.54,0,1,1,24,25.28,8.55,8.55,0,0,1,15.49,16.75Zm1,22.61,1.17,2.9a2.2,2.2,0,0,1-3.78,2.18L11.93,42a2.64,2.64,0,1,1,4.54-2.62Zm15-9a.9.9,0,0,0-.9.9v.9H17.5v-.9a.9.9,0,0,0-1.8,0v1.09a2.25,2.25,0,0,0-1.34,2.06v1.27A2.68,2.68,0,0,1,12,32.62a9.51,9.51,0,0,1,6-7.5,10.32,10.32,0,0,0,12.1,0,9.51,9.51,0,0,1,6,7.5,2.68,2.68,0,0,1-2.39,3.07V34.42a2.25,2.25,0,0,0-1.34-2.05V31.27A.9.9,0,0,0,31.45,30.37ZM36.11,42l-1.93,2.47a2.2,2.2,0,0,1-3.78-2.18l1.17-2.9A2.64,2.64,0,1,1,36.11,42Z"/><path class="cls-4" d="M28.69,36.58a.9.9,0,1,0,.26.64A.91.91,0,0,0,28.69,36.58Z"/><path class="cls-4" d="M26.5,19.82a.9.9,0,0,0-1.27.13,1.56,1.56,0,0,1-2.43,0,.9.9,0,0,0-1.4,1.13,3.37,3.37,0,0,0,5.23,0A.9.9,0,0,0,26.5,19.82Z"/><path class="cls-4" d="M21.75,16.11a2.1,2.1,0,0,0-3,0,.9.9,0,0,0,1.27,1.27.29.29,0,0,1,.42,0,.9.9,0,1,0,1.27-1.27Z"/><path class="cls-4" d="M29.26,16.11a2.1,2.1,0,0,0-3,0,.9.9,0,1,0,1.27,1.27.29.29,0,0,1,.42,0,.9.9,0,0,0,1.27-1.27Z"/></g></g></g></g></svg>