<svg xmlns="http://www.w3.org/2000/svg" viewBox="0 0 48 48"><defs><style>.cls-1{opacity:0.9;}.cls-2{fill:none;}.cls-3{fill:#0075c9;}</style></defs><title>Ресурс 14Capa6</title><g id="Слой_2" data-name="Слой 2"><g id="Icon"><g class="cls-1"><rect class="cls-2" width="48" height="48"/><path class="cls-3" d="M28.41,9.37a.84.84,0,1,0,.84.84A.84.84,0,0,0,28.41,9.37Z"/><path class="cls-3" d="M20,9.37a.84.84,0,1,0,.84.84A.84.84,0,0,0,20,9.37Z"/><path class="cls-3" d="M42.52,27.6A6.75,6.75,0,0,0,43.61,24a5.87,5.87,0,0,0-2.14-4.54,5.71,5.71,0,0,0,.45-2.22,6.29,6.29,0,0,0-3.41-5.57,5.06,5.06,0,0,0-3.84-5.52,6.08,6.08,0,0,0-5.41-3.77,5.93,5.93,0,0,0-5.07,3,5.93,5.93,0,0,0-5.07-3,6.08,6.08,0,0,0-5.41,3.77,5.06,5.06,0,0,0-3.84,5.52,6.29,6.29,0,0,0-3.41,5.57,5.71,5.71,0,0,0,.45,2.22A5.87,5.87,0,0,0,4.76,24,6.75,6.75,0,0,0,5.85,27.6a5.83,5.83,0,0,0,.68,7.57,6.13,6.13,0,0,0,5.84,7h.08a6.66,6.66,0,0,0,11.75-.29,6.66,6.66,0,0,0,11.75.29H36a6.12,6.12,0,0,0,5.91-6.16,5.4,5.4,0,0,0-.08-.89,5.83,5.83,0,0,0,.68-7.57ZM23.34,15.14a3.36,3.36,0,0,0-1.69-.45.84.84,0,0,0,0,1.69,1.69,1.69,0,0,1,1.69,1.69V34.13a6.74,6.74,0,0,0-5.07-2.29.84.84,0,1,0,0,1.69,5.07,5.07,0,0,1,5.07,5.07,5.27,5.27,0,0,1-5.07,5.32A5.08,5.08,0,0,1,13.69,41a.84.84,0,0,0-.86-.48l-.18,0c-2.4.33-5.11-2.39-4.38-5.44A.84.84,0,0,0,8,34.22,4.2,4.2,0,0,1,6.45,31a4.16,4.16,0,0,1,.62-2.17,5.7,5.7,0,0,0,3.6,1.33.84.84,0,1,0,0-1.69A4.44,4.44,0,0,1,6.45,24a4.2,4.2,0,0,1,2-3.56.84.84,0,0,0,.28-1.13,4.16,4.16,0,0,1-.57-2.07,4.46,4.46,0,0,1,4.22-4.48,4.47,4.47,0,0,1,4.22,4.48.84.84,0,1,0,1.69,0,6.12,6.12,0,0,0-5.91-6.16,5.48,5.48,0,0,0-.84.07s0,0,0-.07a3.38,3.38,0,0,1,5.77-2.39.84.84,0,1,0,1.19-1.19,5,5,0,0,0-2.8-1.42,4.27,4.27,0,0,1,3.44-2,4.47,4.47,0,0,1,4.22,4.48Zm14.36,15a5.7,5.7,0,0,0,3.6-1.33A4.16,4.16,0,0,1,41.92,31a4.2,4.2,0,0,1-1.54,3.23.84.84,0,0,0-.28.85,4.17,4.17,0,0,1,.13,1c0,2.62-2.37,4.74-4.51,4.45l-.18,0a.84.84,0,0,0-.86.48,5.08,5.08,0,0,1-4.59,2.95A5.27,5.27,0,0,1,25,38.59a5.07,5.07,0,0,1,5.07-5.07.84.84,0,1,0,0-1.69A6.74,6.74,0,0,0,25,34.13V18.07a1.69,1.69,0,0,1,1.69-1.69.84.84,0,0,0,0-1.69,3.36,3.36,0,0,0-1.69.45V8.53A4.47,4.47,0,0,1,29.25,4a4.27,4.27,0,0,1,3.44,2,5,5,0,0,0-2.8,1.42.84.84,0,1,0,1.19,1.19,3.38,3.38,0,0,1,5.77,2.39s0,0,0,.07a5.48,5.48,0,0,0-.84-.07,6.12,6.12,0,0,0-5.91,6.16.84.84,0,1,0,1.69,0A4.47,4.47,0,0,1,36,12.75a4.46,4.46,0,0,1,4.22,4.48,4.16,4.16,0,0,1-.57,2.07.84.84,0,0,0,.28,1.13,4.2,4.2,0,0,1,2,3.56,4.44,4.44,0,0,1-4.22,4.48.84.84,0,1,0,0,1.69Z"/><path class="cls-3" d="M21.44,20.44a.84.84,0,0,0-1.19-.07,4.23,4.23,0,0,1-7-3.15.84.84,0,1,0-1.69,0,5.92,5.92,0,0,0,4.95,5.83,2.54,2.54,0,0,1-2.42,1.77.84.84,0,0,0,0,1.69,4.23,4.23,0,0,0,4.15-3.43,5.9,5.9,0,0,0,3.17-1.45A.84.84,0,0,0,21.44,20.44Z"/><path class="cls-3" d="M12.36,35.21a.84.84,0,0,0,0,1.69,4.47,4.47,0,0,1,4.22,4.48.84.84,0,1,0,1.69,0A6.12,6.12,0,0,0,12.36,35.21Z"/><path class="cls-3" d="M19.12,28.45a7.58,7.58,0,0,0-6.61,3.85.84.84,0,0,0,1.47.83,5.9,5.9,0,0,1,5.14-3,.84.84,0,1,0,0-1.69Z"/><path class="cls-3" d="M34.32,24.82a2.54,2.54,0,0,1-2.42-1.77,5.92,5.92,0,0,0,4.95-5.83.84.84,0,1,0-1.69,0,4.22,4.22,0,0,1-7,3.15A.84.84,0,1,0,27,21.63a5.9,5.9,0,0,0,3.17,1.45,4.23,4.23,0,0,0,4.15,3.43.84.84,0,0,0,0-1.69Z"/><path class="cls-3" d="M36,35.21a6.12,6.12,0,0,0-5.91,6.16.84.84,0,1,0,1.69,0A4.47,4.47,0,0,1,36,36.9a.84.84,0,0,0,0-1.69Z"/><path class="cls-3" d="M35.86,32.31a7.58,7.58,0,0,0-6.61-3.85.84.84,0,1,0,0,1.69,5.9,5.9,0,0,1,5.14,3,.84.84,0,0,0,1.47-.83Z"/></g></g></g></svg>