<svg xmlns="http://www.w3.org/2000/svg" viewBox="0 0 48 48"><defs><style>.cls-1{fill:none;}.cls-2{fill:#1874c6;}</style></defs><title>Ресурс 32Capa3</title><g id="Слой_2" data-name="Слой 2"><g id="Icon"><rect class="cls-1" width="48" height="48"/><path class="cls-2" d="M5.4,39.75a4.82,4.82,0,0,0,9.64,0s0-.09,0-.14a9.71,9.71,0,0,0-2.23-5.54,15,15,0,0,0-1.47-1.63c-.79-.75-.9-.75-1.12-.75s-.34,0-1.13.75a14.7,14.7,0,0,0-1.47,1.63A9.72,9.72,0,0,0,5.4,39.62S5.4,39.71,5.4,39.75Zm1.33,0s0-.07,0-.1a8.29,8.29,0,0,1,1.81-4.59,13.14,13.14,0,0,1,1.67-1.84A13.48,13.48,0,0,1,11.87,35a8.29,8.29,0,0,1,1.83,4.6s0,.07,0,.11a3.49,3.49,0,1,1-7,0Z"/><path class="cls-2" d="M24,14c.75-.65,7.22-6.19,8.23-7,2.33-2,5-4.16,6-5.26l.17-.21a.89.89,0,0,1,1.4,1.1l-.18.23,0,0c-1.06,1.19-3.77,3.46-6.16,5.46-1,.85-7.47,6.38-8.21,7A.89.89,0,0,1,24,14Z"/><path class="cls-2" d="M13.44,24.8a2.69,2.69,0,0,1,2.87-2.49,1.38,1.38,0,0,0,.76-.32,69,69,0,0,1,7.21-8.22A.89.89,0,0,1,25.56,15a68,68,0,0,0-7,8,3,3,0,0,1-2.4,1.08,1,1,0,0,0-.2,2l.34,0a1.83,1.83,0,0,1,1.66,1.62c.53,5.45,4.63,11.82,14.41,11.82a.89.89,0,0,1,.89.89v5.51a.89.89,0,0,1-1.78,0V41.28a16.22,16.22,0,0,1-11-4.37,14.67,14.67,0,0,1-4.28-9,.11.11,0,0,0-.07,0l-.34,0A2.69,2.69,0,0,1,13.44,24.8Z"/><path class="cls-2" d="M36.67,38a10.09,10.09,0,0,0,4.21-5.13.89.89,0,1,1,1.67.61,11.87,11.87,0,0,1-5,6A.89.89,0,0,1,36.67,38Z"/><path class="cls-2" d="M33.05,28.19a.67.67,0,0,1-1.34,0v-.45a.67.67,0,0,1,1.34,0Z"/><path class="cls-2" d="M33.05,31.76a.67.67,0,0,1-1.34,0v-.45a.67.67,0,0,1,1.34,0Z"/><path class="cls-2" d="M33.05,24.63a.67.67,0,0,1-1.34,0v-.45a.67.67,0,0,1,1.34,0Z"/><path class="cls-2" d="M33.05,21.07a.67.67,0,0,1-1.34,0v-.45a.67.67,0,0,1,1.34,0Z"/><path class="cls-2" d="M32.38,18.17a.67.67,0,0,1-.67-.67v-.45a.67.67,0,0,1,1.34,0v.45A.67.67,0,0,1,32.38,18.17Z"/><path class="cls-2" d="M32.2,35.34l-.19,0-.37,0h-.07a.67.67,0,0,1-.07-1.33l.32,0a.67.67,0,0,1,.38,1.28Z"/><path class="cls-2" d="M21.24,24.94a.67.67,0,1,1,1.27.43c0,.13-.08.25-.11.38a.67.67,0,0,1-.65.5l-.17,0a.67.67,0,0,1-.48-.82C21.14,25.25,21.19,25.09,21.24,24.94Z"/><path class="cls-2" d="M30.56,15.5a.67.67,0,0,1,.13-.94l.35-.27a.67.67,0,0,1,.81,1.06l-.36.27a.67.67,0,0,1-.94-.13Z"/><path class="cls-2" d="M28.46,35.31h-.12l-.47-.1a.67.67,0,0,1,.3-1.3l.41.08a.67.67,0,0,1-.12,1.33Z"/><path class="cls-2" d="M22.26,28.06c0,.13,0,.26.08.39a.67.67,0,0,1-.49.81.66.66,0,0,1-.2,0,.67.67,0,0,1-.61-.51c0-.16-.07-.32-.1-.48a.67.67,0,1,1,1.32-.22Z"/><path class="cls-2" d="M23.09,21.67a.67.67,0,1,1,1.08.79l-.25.35a.67.67,0,1,1-1.1-.76Z"/><path class="cls-2" d="M23.3,30.64l.22.35a.67.67,0,1,1-1.12.73l-.25-.4a.67.67,0,0,1,1.15-.68Z"/><path class="cls-2" d="M25.19,32.56l.34.23a.67.67,0,1,1-.73,1.12l-.4-.27a.67.67,0,1,1,.79-1.08Z"/><path class="cls-2" d="M25.5,18.9a.67.67,0,1,1,.94.95l-.31.31a.67.67,0,0,1-1-.93Z"/><path class="cls-2" d="M28.71,17.8a.67.67,0,1,1-.85-1l.35-.29a.67.67,0,0,1,.84,1Z"/></g></g></svg>