<svg xmlns="http://www.w3.org/2000/svg" viewBox="0 0 48 48"><defs><style>.cls-1{fill:none;}.cls-2{fill:#1874c6;stroke:#1874c6;stroke-miterlimit:10;stroke-width:0.29px;}</style></defs><title>Ресурс 33Capa6</title><g id="Слой_2" data-name="Слой 2"><g id="Icon"><rect class="cls-1" width="48" height="48"/><path class="cls-2" d="M42,9.78,40.74,8.57a3.12,3.12,0,0,0-4.41,0l-8.95,9.11a27,27,0,0,1-5.51.17,5.24,5.24,0,0,1-2.82-1.33,4.26,4.26,0,0,1-1-1.57c-.23-.63-.45-1.3-.63-2a9.56,9.56,0,0,0,3.66-5.43,1.67,1.67,0,1,0-3.21-.94,7.91,7.91,0,0,1-1.19,2.49,28.77,28.77,0,0,1-.22-4.27,1.67,1.67,0,0,0-3.34-.16c0,.06,0,.48,0,1.16a3.12,3.12,0,0,1-.51-1,2.07,2.07,0,0,0-.52-1,1.54,1.54,0,0,0-1.32-.4,1.65,1.65,0,0,0-.84.35A1.68,1.68,0,0,0,9.3,5.41a6.43,6.43,0,0,0,2,3.5,14.12,14.12,0,0,0,2.16,1.72c.13.81.28,1.61.46,2.38a13.33,13.33,0,0,0-5.22-.16,1.72,1.72,0,0,0-1.06.64,1.67,1.67,0,0,0,.16,2.2h0a1.66,1.66,0,0,0,1.48.45,11.49,11.49,0,0,1,5.88.72A7.44,7.44,0,0,0,16.71,19a7.32,7.32,0,0,0,.58.51,8.77,8.77,0,0,1-5.91,2.47,30.21,30.21,0,0,1-2.84-4A2.94,2.94,0,0,0,8,17a1.6,1.6,0,0,0-1.28-.43,1.46,1.46,0,0,0-1.1.54,1.71,1.71,0,0,0-.34,1.16c0,.64.3,1.42,1.45,3.05a1.67,1.67,0,0,0-1.08,1.38A1.67,1.67,0,0,0,6.74,24.5a14.7,14.7,0,0,0,2.85.68,4.07,4.07,0,0,1-2.69,1.1,1.71,1.71,0,0,0-1.2.39,1.67,1.67,0,0,0,1,2.95c3.9.26,6.73-3.39,7.63-4.73a11.92,11.92,0,0,0,3.18-1.37,13.07,13.07,0,0,0,3-2.52c.31.08.62.15.93.2a11.42,11.42,0,0,0,2.44.17L7.07,38.4a3.12,3.12,0,0,0,0,4.41L8.34,44a3.12,3.12,0,0,0,4.41,0L42,14.19A3.12,3.12,0,0,0,42,9.78Zm-5.05-.59a2.3,2.3,0,0,1,3.24,0l1.23,1.21a2.29,2.29,0,0,1,0,3.24l0,0a2.29,2.29,0,0,1-3.24,0l-1.23-1.21a2.29,2.29,0,0,1,0-3.24l0,0ZM12.16,43.4a2.3,2.3,0,0,1-3.24,0L7.68,42.22a2.29,2.29,0,0,1,0-3.24L25.21,21.11a.43.43,0,0,0,.11-.43.41.41,0,0,0-.47-.27h0a8.7,8.7,0,0,1-3.31,0,10,10,0,0,1-1.1-.25.41.41,0,0,0-.43.13A12.22,12.22,0,0,1,17,22.81a11.09,11.09,0,0,1-3.1,1.32.41.41,0,0,0-.25.17c-.73,1.11-3.38,4.73-7,4.49a.85.85,0,1,1,.11-1.69,5.56,5.56,0,0,0,4-2,.42.42,0,0,0,.13-.34.41.41,0,0,0-.39-.37A13.4,13.4,0,0,1,7,23.72a.85.85,0,0,1-.57-.83.85.85,0,0,1,.95-.81.42.42,0,0,0,.34-.1.41.41,0,0,0,.05-.55c-1.46-2-1.68-2.71-1.7-3.17a.91.91,0,0,1,.16-.61.63.63,0,0,1,.49-.23.76.76,0,0,1,.66.19,2.25,2.25,0,0,1,.41.66l0,0a30.62,30.62,0,0,0,3.06,4.31.41.41,0,0,0,.31.15,9.64,9.64,0,0,0,7-3.05.42.42,0,0,0,.11-.18.41.41,0,0,0-.16-.45,6.56,6.56,0,0,1-2.26-2.72.42.42,0,0,0-.23-.22,12.5,12.5,0,0,0-6.45-.83.89.89,0,0,1-.63-.1A.85.85,0,0,1,8.36,14a.88.88,0,0,1,.53-.32,12.93,12.93,0,0,1,5.53.3.43.43,0,0,0,.3,0,.41.41,0,0,0,.22-.47,30.18,30.18,0,0,1-.64-3.14.41.41,0,0,0-.19-.29,13.32,13.32,0,0,1-2.18-1.71,5.68,5.68,0,0,1-1.81-3,.87.87,0,0,1,.09-.55.85.85,0,0,1,.62-.44.74.74,0,0,1,.67.17,1.27,1.27,0,0,1,.3.59,5.05,5.05,0,0,0,1.47,2.18.41.41,0,0,0,.55,0A.43.43,0,0,0,14,6.92c-.06-1.31,0-2.16,0-2.2a.85.85,0,1,1,1.69.08A30.32,30.32,0,0,0,16,10.11a.43.43,0,0,0,.18.29.41.41,0,0,0,.52,0,7.9,7.9,0,0,0,2-3.48.86.86,0,0,1,1-.61.84.84,0,0,1,.4.22.88.88,0,0,1,.21.89,8.58,8.58,0,0,1-3.54,5.09.41.41,0,0,0-.18.45,23.3,23.3,0,0,0,.73,2.36,5.07,5.07,0,0,0,1.19,1.87,6,6,0,0,0,3.25,1.55,29.3,29.3,0,0,0,5.93-.18.41.41,0,0,0,.22-.12l7.54-7.68A3.11,3.11,0,0,0,36.34,13l1.22,1.2.65.52,0,0a3.12,3.12,0,0,0,1.69.4L12.16,43.4Z"/></g></g></svg>