<svg xmlns="http://www.w3.org/2000/svg" viewBox="0 0 48 48"><defs><style>.cls-1{fill:none;}.cls-2{opacity:0.9;}.cls-3{fill:#0075c9;}</style></defs><title>Ресурс 13Capa6</title><g id="Слой_2" data-name="Слой 2"><g id="Icon"><rect class="cls-1" width="48" height="48"/><g class="cls-2"><path class="cls-3" d="M35.19,7.58A15.77,15.77,0,0,0,23.83,3.12,15.59,15.59,0,0,0,8.25,18.69V34.53c0,6.74,3.26,10.92,8.5,10.92,7.4,0,9.91-5.3,11.26-8.15l0-.07a12.52,12.52,0,0,1,4.91-5.35c3.13-2.18,6.36-4.44,6.45-13.17A15.19,15.19,0,0,0,35.19,7.58ZM31.67,30A14.74,14.74,0,0,0,26,36.28l0,.07c-1.29,2.73-3.25,6.87-9.23,6.87-4,0-6.26-3.17-6.26-8.69V18.69A13.35,13.35,0,0,1,23.83,5.35,13.56,13.56,0,0,1,33.6,9.15a13,13,0,0,1,3.56,9.54C37.08,26.26,34.57,28,31.67,30Z"/><path class="cls-3" d="M30.73,15.5a1.12,1.12,0,0,0,2-1A9.66,9.66,0,0,0,31,12.05,10.82,10.82,0,0,0,23.17,9a10.17,10.17,0,0,0-7.68,3.8,10,10,0,0,0-2.43,8c.24,1.43,1.48,2,2.57,2.49a4.34,4.34,0,0,1,2.55,2.09c.57,1.31.51,2.46-1.38,5.1a1.12,1.12,0,1,0,1.82,1.3c1.84-2.56,2.74-4.68,1.61-7.3a6.43,6.43,0,0,0-3.68-3.23c-.61-.28-1.25-.57-1.29-.83a7.84,7.84,0,0,1,1.93-6.21,8,8,0,0,1,6-3,8.61,8.61,0,0,1,6.21,2.4A7.42,7.42,0,0,1,30.73,15.5Z"/><path class="cls-3" d="M32.75,18a1.12,1.12,0,0,0-1.12,1.12c0,2.88-.57,4.35-2.1,5.42a1.12,1.12,0,1,0,1.28,1.83c2.69-1.88,3.06-4.6,3.06-7.26A1.12,1.12,0,0,0,32.75,18Z"/></g></g></g></svg>