<svg xmlns="http://www.w3.org/2000/svg" viewBox="0 0 48 48"><defs><style>.cls-1{fill:none;}.cls-2{opacity:0.9;}.cls-3{fill:#0075c9;}</style></defs><title>Ресурс 11Capa6</title><g id="Слой_2" data-name="Слой 2"><g id="Icon"><rect class="cls-1" width="48" height="48"/><g class="cls-2"><path class="cls-3" d="M37,14.08a27.42,27.42,0,0,1,5.61,4.55l4.87,5-4.66,4.86a28,28,0,0,1-6.81,5.3,27.05,27.05,0,0,1-12.41,3.24h-.41a27.23,27.23,0,0,1-18-6.87l-3-2.61a5.33,5.33,0,0,1,0-8L5.19,17a27.23,27.23,0,0,1,18-6.83h.72A27,27,0,0,1,37,14.08Zm-13.4,21.4a11.84,11.84,0,0,0,.23-23.66h-.58a11.82,11.82,0,0,0-8.56,3.76l-1.16-1.06A13.61,13.61,0,0,1,15,13.14a26,26,0,0,0-8.81,5.09L3.32,20.8a3.75,3.75,0,0,0,0,5.6l3,2.61A26,26,0,0,0,15,34.09a13.41,13.41,0,0,1-4.84-12.65l1.57.18A11.85,11.85,0,0,0,23.33,35.49h.32Zm11.66-3a26.37,26.37,0,0,0,6.42-5l3.61-3.76-3.81-3.94a25.82,25.82,0,0,0-5.28-4.29,25.6,25.6,0,0,0-4.13-2A13.39,13.39,0,0,1,32,33.89,25.5,25.5,0,0,0,35.3,32.43Z"/><path class="cls-3" d="M19.46,22.15l2.52.32-1.7-2a4.68,4.68,0,1,1-.82,1.65Z"/></g></g></g></svg>