<svg xmlns="http://www.w3.org/2000/svg" viewBox="0 0 48 48"><defs><style>.cls-1{fill:none;}.cls-2{fill:#1874c6;}</style></defs><title>Ресурс 26Layer5</title><g id="Слой_2" data-name="Слой 2"><g id="Icon"><rect class="cls-1" width="48" height="48"/><path class="cls-2" d="M16,33.44a.74.74,0,1,0,.52.22A.75.75,0,0,0,16,33.44Z"/><path class="cls-2" d="M22.08,34.54a.74.74,0,1,0-.22.52A.75.75,0,0,0,22.08,34.54Z"/><path class="cls-2" d="M22.58,37.76a.74.74,0,1,0,.52.22A.75.75,0,0,0,22.58,37.76Z"/><path class="cls-2" d="M18.28,30.53a.74.74,0,1,0,.52.22A.75.75,0,0,0,18.28,30.53Z"/><path class="cls-2" d="M21.36,29.12a.74.74,0,1,0-.52.22A.75.75,0,0,0,21.36,29.12Z"/><path class="cls-2" d="M18.13,26a.74.74,0,1,0-.22.52A.75.75,0,0,0,18.13,26Z"/><path class="cls-2" d="M15.66,29a.74.74,0,1,0-.22.52A.75.75,0,0,0,15.66,29Z"/><path class="cls-2" d="M38.79,13.19a15.26,15.26,0,0,0-9.14-7.27A19.09,19.09,0,0,0,24,5c-4,0-7.53,1.69-9.15,4.4a6.83,6.83,0,0,0-.54,1.11,13.72,13.72,0,0,0-4.22,9.37,7.11,7.11,0,0,1-2.59,5.88A1.36,1.36,0,0,0,7.64,28c.36.2.77.4,1.17.59s.85.41,1.09.56v1.32a1.39,1.39,0,0,1-.1.52l-.18.45a1.91,1.91,0,0,0,.24,1.86v.16a1.61,1.61,0,0,0,.56,1.23v.87A3.39,3.39,0,0,0,13.8,39H16a4.42,4.42,0,0,1,3.62,1.89l1.24,1.78a.74.74,0,0,0,.61.32H34a.74.74,0,0,0,.7-1l-2.12-6.42a7.5,7.5,0,0,0,3.72-1.93,15.41,15.41,0,0,0,4.7-10A18.83,18.83,0,0,0,38.79,13.19ZM21.85,41.5l-1-1.46A5.91,5.91,0,0,0,16,37.51H13.8a1.9,1.9,0,0,1-1.9-1.9V34.34a.74.74,0,0,0-.45-.68h0a.13.13,0,0,1-.08-.12V33.1a.74.74,0,0,0-.16-.46l-.13-.17a.43.43,0,0,1-.06-.42l.18-.45a2.86,2.86,0,0,0,.21-1.08V28.94c0-.71-.73-1.06-1.93-1.64-.32-.15-.64-.31-.93-.46a8.6,8.6,0,0,0,3-6.94,11.46,11.46,0,0,1,2.31-6.59,9.41,9.41,0,0,0,1.17,4c1.9,3.56,5.21,5,7.87,6.24s4,1.86,4,3.35a3.21,3.21,0,0,1-.75,2.39,2.06,2.06,0,0,1-1.36.56.73.73,0,0,0-.63.29.74.74,0,0,0-.1.69l.09.23a7.53,7.53,0,0,0,6.93,4.69L33,41.5Zm13.41-8.91a6,6,0,0,1-3.66,1.65h-.14a6.18,6.18,0,0,1-1.64-.13,6,6,0,0,1-4-3,3.4,3.4,0,0,0,1.34-.78,4.58,4.58,0,0,0,1.22-3.49c0-2.51-2.37-3.57-4.85-4.69S18,19.71,16.34,16.59a6.69,6.69,0,0,1-.73-5.38v0a5.42,5.42,0,0,1,.47-1C17.46,7.91,20.48,6.5,24,6.5h0a17.72,17.72,0,0,1,5.2.83,13.62,13.62,0,0,1,8.28,6.56C40.34,19.17,40.86,27.27,35.26,32.59Z"/><path class="cls-2" d="M24.09,8.57H24a.74.74,0,0,0,.08,1.48h0a.74.74,0,0,0,0-1.48Z"/><path class="cls-2" d="M28.59,9.31c-.45-.14-.92-.26-1.39-.37a.74.74,0,1,0-.32,1.45c.43.09.86.21,1.26.33a10.19,10.19,0,0,1,6.22,4.86.74.74,0,0,0,1.31-.71A11.62,11.62,0,0,0,28.59,9.31Z"/></g></g></svg>