<svg xmlns="http://www.w3.org/2000/svg" viewBox="0 0 48 48"><defs><style>.cls-1{fill:none;}.cls-2{fill:#1874c6;}</style></defs><title>Ресурс 28Capa2</title><g id="Слой_2" data-name="Слой 2"><g id="Icon"><rect class="cls-1" width="48" height="48"/><path class="cls-2" d="M40.83,10.39C37.41,7.11,34,5.66,30.68,6.1c-4,.53-6.65,3.69-7.51,4.88a6,6,0,0,1-4.6-4.28A.76.76,0,0,0,17.07,7a7.59,7.59,0,0,0,6.32,5.56l.51.09.27-.44s2.54-4.08,6.72-4.62c2.83-.37,5.82.94,8.89,3.88a16.5,16.5,0,0,1,3.89,18.62A16.14,16.14,0,0,1,28.35,40.38h-.13a20.41,20.41,0,0,1-12.12-3.15l-.58-.34-.42.52a2.11,2.11,0,0,1-1.46.71,4.53,4.53,0,0,1-3.19-1.67,2.53,2.53,0,0,0-2.78-.6c-.72.3-2.41,1.42-2.41,5.34a.76.76,0,1,0,1.53,0c0-2.45.76-3.64,1.47-3.93a1,1,0,0,1,1.12.26c1.5,1.5,3,2.21,4.4,2.12a3.64,3.64,0,0,0,2-.82A22.79,22.79,0,0,0,27,42a12,12,0,0,0,1.41-.07A17.76,17.76,0,0,0,45.08,30.7,18,18,0,0,0,40.83,10.39Z"/><path class="cls-2" d="M6.34,32.09c3.51-2.09,8.77.71,8.82.74l.54.3.4-.47c2.24-2.62,5.66-1.54,5.8-1.49l.89.3.11-.93c.26-2.11,3.24-3.25,3.27-3.26l.5-.19V21.87l-.43-.21c-2.12-1-2.25-3.84-2.25-3.86l0-.62-.61-.11c-8.95-1.66-10.23-7.91-10.28-8.18a.76.76,0,0,0-1.5.28c.06.3,1.43,7.28,10.95,9.3a6.13,6.13,0,0,0,2.61,4.33V26a6.8,6.8,0,0,0-3.56,3.47,7,7,0,0,0-6.23,1.7c-1.57-.73-6.22-2.57-9.79-.45-2.73,1.62-4.12,5.14-4.12,10.44a.76.76,0,1,0,1.53,0C3,36.49,4.1,33.42,6.34,32.09Z"/></g></g></svg>