<svg xmlns="http://www.w3.org/2000/svg" viewBox="0 0 48 48"><defs><style>.cls-1{fill:none;}.cls-2{fill:#1874c6;}</style></defs><title>Ресурс 27Layer4</title><g id="Слой_2" data-name="Слой 2"><g id="Icon"><rect class="cls-1" width="48" height="48"/><path class="cls-2" d="M16,17.56H13.27a.72.72,0,0,1-.6-.32c-2.46-3.68-5.35-2-5.48-1.93a.72.72,0,1,1-.74-1.23s4-2.33,7.18,2H16a.11.11,0,0,0,.11-.06.11.11,0,0,0,0-.12l-.56-.85a.72.72,0,0,1,1.19-.79l.56.85A1.55,1.55,0,0,1,16,17.56Z"/><path class="cls-2" d="M21.08,24.72a.71.71,0,0,1-.52-.22l-1.37-1.43a.72.72,0,0,1,1-1L21.6,23.5a.72.72,0,0,1-.52,1.21Z"/><path class="cls-2" d="M21.41,32.11a.72.72,0,0,1-.5-.2l-1.7-1.67a.72.72,0,0,1,1-1l1.7,1.67a.72.72,0,0,1-.5,1.23Z"/><path class="cls-2" d="M21.65,39.47a.72.72,0,0,1-.49-.2l-1.22-1.16a.72.72,0,1,1,1-1l1.22,1.16a.72.72,0,0,1-.49,1.23Z"/><path class="cls-2" d="M26.85,44h-5.7a.72.72,0,0,1-.64-.4,10.14,10.14,0,0,1-.82-6A17,17,0,0,1,19,29.85a8,8,0,0,1-.06-7.31c-.44-.9-1.46-2.56-2.62-3a1.47,1.47,0,0,0-1.24.08c-.08.05-3.34,2.07-6.1,1.3a4.17,4.17,0,0,1-2.54-2C5.29,18.56,2,17.17,2.63,12.45a.7.7,0,0,1,0-.1,3.66,3.66,0,0,1,2.2-2.22c2.19-.85,5.32,0,9.32,2.38.43-.13,1.74-.77,2.74-3.77a7.65,7.65,0,0,1,14.19,0c1,3,2.29,3.63,2.74,3.77,4-2.43,7.13-3.23,9.32-2.38a3.67,3.67,0,0,1,2.2,2.22.7.7,0,0,1,0,.1c.67,4.72-2.66,6.11-3.79,6.44a4.18,4.18,0,0,1-2.54,2c-2.76.77-6-1.24-6.16-1.33a1.45,1.45,0,0,0-1.18,0c-1.16.42-2.18,2.09-2.62,3A8,8,0,0,1,29,29.85a17,17,0,0,1-.71,7.79,10.13,10.13,0,0,1-.82,6A.71.71,0,0,1,26.85,44ZM21.62,42.6h4.76a8.4,8.4,0,0,0,.49-4.84.72.72,0,0,1,0-.44,15.66,15.66,0,0,0,.67-7.49.72.72,0,0,1,.09-.48,6.6,6.6,0,0,0,0-6.42.71.71,0,0,1,0-.65c.06-.13,1.43-3.29,3.59-4.08a2.89,2.89,0,0,1,2.38.15c.09.05,2.93,1.8,5.07,1.2A2.84,2.84,0,0,0,40.46,18a.72.72,0,0,1,.52-.39c.36-.06,3.53-.75,3-4.85a2.28,2.28,0,0,0-1.37-1.26c-1.23-.46-3.66-.41-8.25,2.42A.72.72,0,0,1,34,14c-.27,0-2.7-.13-4.24-4.78A6,6,0,0,0,24,5.4a6,6,0,0,0-5.73,3.8C16.72,13.85,14.3,14,14,14a.72.72,0,0,1-.38-.11C9,11,6.59,11,5.36,11.47A2.28,2.28,0,0,0,4,12.72c-.57,4.21,2.84,4.83,3,4.85a.72.72,0,0,1,.52.39,2.84,2.84,0,0,0,1.81,1.59c1.79.5,4.22-.67,5-1.16a2.92,2.92,0,0,1,2.44-.18c2.16.79,3.53,3.95,3.59,4.08a.71.71,0,0,1,0,.65,6.6,6.6,0,0,0,0,6.42.72.72,0,0,1,.09.48,15.56,15.56,0,0,0,.67,7.49.72.72,0,0,1,0,.44A8.36,8.36,0,0,0,21.62,42.6Z"/><path class="cls-2" d="M34.73,17.56H32a1.55,1.55,0,0,1-1.29-2.41l.56-.85a.72.72,0,0,1,1.19.79l-.56.85a.12.12,0,0,0,.1.19h2.36c3.17-4.38,7.14-2.07,7.18-2a.72.72,0,0,1-.73,1.23c-.31-.18-3.09-1.66-5.48,1.93A.72.72,0,0,1,34.73,17.56Z"/><path class="cls-2" d="M26.92,24.72a.72.72,0,0,1-.52-1.21l1.37-1.43a.72.72,0,0,1,1,1L27.44,24.5A.72.72,0,0,1,26.92,24.72Z"/><path class="cls-2" d="M26.59,32.11a.72.72,0,0,1-.5-1.23l1.7-1.67a.72.72,0,0,1,1,1L27.1,31.9A.72.72,0,0,1,26.59,32.11Z"/><path class="cls-2" d="M26.36,39.47a.72.72,0,0,1-.49-1.23l1.22-1.16a.72.72,0,0,1,1,1l-1.22,1.16A.72.72,0,0,1,26.36,39.47Z"/></g></g></svg>