<svg xmlns="http://www.w3.org/2000/svg" viewBox="0 0 48 48"><defs><style>.cls-1{fill:none;}.cls-2{fill:#1874c6;}</style></defs><title>Ресурс 29Layer2</title><g id="Слой_2" data-name="Слой 2"><g id="Icon"><rect class="cls-1" width="48" height="48"/><path class="cls-2" d="M37.66,24a21.76,21.76,0,0,1-3.54-5,5.77,5.77,0,0,0-3-2.37.7.7,0,0,0,0-.14,20.3,20.3,0,0,0-.3-2.07,15,15,0,0,1,4.31.12h.11l.16,0h0c1-.12,1.65-1.17,1.65-2.55s-.71-2.44-1.67-2.55h0a17.36,17.36,0,0,0-6.63,0A6.2,6.2,0,0,0,27.24,8,7.58,7.58,0,0,1,28.6,7a1.84,1.84,0,1,0-2-3.06A12.66,12.66,0,0,0,25,5.11V4a1.84,1.84,0,0,0-3.68,0V5.19a9,9,0,0,0-3.24-2.89,1.84,1.84,0,0,0-1.61,3.3S18.81,6.8,18.65,8.7a1.84,1.84,0,0,0,0,.31,11,11,0,0,0-1.23.91.73.73,0,0,0-.25-.07,49.6,49.6,0,0,0-7.3,0l-.1,0a1.4,1.4,0,0,0-.22,0c-1,0-1.84,1.11-1.84,2.57S8.51,15,9.56,15a1.43,1.43,0,0,0,.22,0A.76.76,0,0,0,10,15s1.93-.07,4.19,0a14.5,14.5,0,0,0-.64,4.19C12,20.52,5.14,27.51,10.06,34.53,15.28,42,24.3,45.88,30.52,45.88s8.75-.91,9.55-6.51C40.8,34.29,39.47,25.84,37.66,24Zm-8-7.71L27.53,16a3.74,3.74,0,0,1,.29-.29,5,5,0,0,1,1.62-.87Q29.58,15.56,29.67,16.32Zm5.26-4.27a1.52,1.52,0,0,1,.35-1.11,1.37,1.37,0,0,1,.38,1.11,1.44,1.44,0,0,1-.37,1.1h0A1.43,1.43,0,0,1,34.93,12.05ZM27.38,5.13a.36.36,0,0,1,.2-.06h.07a.37.37,0,0,1,.13.67,6.22,6.22,0,0,0-2,1.76.72.72,0,0,0-.08.22A.37.37,0,0,1,25,7.64C25,7.48,25.12,6.63,27.38,5.13ZM22.8,4a.37.37,0,0,1,.74,0V7.64a.37.37,0,0,1-.74,0Zm-5.68.33a.37.37,0,0,1,0-.68l.12,0a.36.36,0,0,1,.16,0c.15.07,3.68,1.83,3.41,5.25a.37.37,0,0,1-.36.34h0a.37.37,0,0,1-.34-.4C20.35,5.9,17.26,4.36,17.12,4.29Zm-7.58,7a1.37,1.37,0,0,1,.38,1.11,1.44,1.44,0,0,1-.37,1.1,1.44,1.44,0,0,1-.37-1.1A1.53,1.53,0,0,1,9.55,11.31Zm1.69,2.18a3.6,3.6,0,0,0,.16-1.07,3.53,3.53,0,0,0-.2-1.17,48.12,48.12,0,0,1,4.91,0,10.75,10.75,0,0,0-1.41,2.26C13.39,13.47,12.14,13.48,11.24,13.49ZM38.62,39.16c-.66,4.6-2.32,5.25-8.1,5.25S16.19,40.73,11.27,33.69c-1-1.43-3.64-6.41,2.38-12.61a.72.72,0,0,0,.08.2,2.75,2.75,0,0,0,1.85,1.08,3.36,3.36,0,0,0,.52,0,6.44,6.44,0,0,0,3.86-1.69A.74.74,0,1,0,19,19.57c-1.57,1.26-2.6,1.43-3.19,1.35a1.45,1.45,0,0,1-.8-.36c-.13-1.19-.5-7.08,4.33-10.25a1.82,1.82,0,0,0,1,.37h.15a1.84,1.84,0,0,0,1.79-1.45,1.79,1.79,0,0,0,2-.14,1.8,1.8,0,0,0,2,.11,4.37,4.37,0,0,1,.94.74,10.82,10.82,0,0,0-3.46,1.91A.74.74,0,0,0,24.74,13c2.89-2.41,6.87-2.44,9-2.25a3.46,3.46,0,0,0-.25,1.32,3.66,3.66,0,0,0,.12.92c-3-.2-5.22.35-6.74,1.65A5.2,5.2,0,0,0,25,18.3v.31a2.07,2.07,0,0,1-1.48.43,2.53,2.53,0,0,1-1.47-.37V15.36a.74.74,0,0,0-1.47,0v3.31c0,1.07,1.24,1.84,2.94,1.84s2.94-.77,2.94-1.84v-.36a3.28,3.28,0,0,1,.2-1l3.54.54,0,0a4.72,4.72,0,0,1,2.56,1.82,23.11,23.11,0,0,0,3.81,5.34C37.85,26.3,39.35,34,38.62,39.16Z"/><path class="cls-2" d="M19.86,28.51a6.05,6.05,0,0,0,.33-.79A16.38,16.38,0,0,0,21,23.08a.74.74,0,0,0-1.47,0,15.05,15.05,0,0,1-.7,4.18,4.93,4.93,0,0,1-.41.9L16,30.67A.74.74,0,0,0,17,31.78a9.9,9.9,0,0,0,2.06-2,17.34,17.34,0,0,1,2,3.79.74.74,0,0,0,1.39-.49A17.8,17.8,0,0,0,19.86,28.51Z"/><path class="cls-2" d="M35.29,26.31a20.6,20.6,0,0,0-2-4.37c-1.72-2.59-5.73-1.82-5.9-1.78a.74.74,0,0,0,.1,1.45l2.34.14a4.31,4.31,0,0,1-.61.81c-.83.83-1,4.37-1,6.4a.74.74,0,1,0,1.47,0c0-2.23.22-4.93.52-5.36a6.68,6.68,0,0,0,1.08-1.54,2.35,2.35,0,0,1,.73.69,19.55,19.55,0,0,1,1.79,4.05,7.93,7.93,0,0,0,1.24,2.68,7.13,7.13,0,0,1,.52,3.16.74.74,0,0,0,1.47,0c0-.76-.07-3.31-1-4.2A10.25,10.25,0,0,1,35.29,26.31Z"/><path class="cls-2" d="M33.26,27.29a.74.74,0,0,0-1,.26,11.1,11.1,0,0,0-1.72,4.78l-4.21,4.21a.74.74,0,0,0,1,1l3.24-3.24a9.49,9.49,0,0,0,.73,3,.74.74,0,0,0,1.38-.45L32,32.58a9.44,9.44,0,0,1,1.53-4.29A.74.74,0,0,0,33.26,27.29Z"/></g></g></svg>