<svg xmlns="http://www.w3.org/2000/svg" viewBox="0 0 48 48"><defs><style>.cls-1{fill:none;}.cls-2{fill:#1874c6;}</style></defs><title>Ресурс 24Layer1</title><g id="Слой_2" data-name="Слой 2"><g id="Icon"><rect class="cls-1" width="48" height="48"/><path class="cls-2" d="M38.21,3a5.54,5.54,0,0,0-3.93,1.75,5.46,5.46,0,0,0-1.49,4.38A14.21,14.21,0,0,0,24.68,22V26H23.32V22A14.21,14.21,0,0,0,15.21,9.14a5.46,5.46,0,0,0-1.49-4.38A5.54,5.54,0,0,0,9.79,3C6.06,3,3,7.27,3,12.49S6.06,22,9.79,22a5.54,5.54,0,0,0,3.93-1.75,5.73,5.73,0,0,0,1.08-6.15,3.9,3.9,0,0,1-.17-.61A10.23,10.23,0,0,1,19.26,22v4.3a4.77,4.77,0,0,0-2.89,2.42,4.82,4.82,0,0,0,.37,4.88l2.78,4a8.91,8.91,0,0,1,1.77,5.12V45h5.41V42.66a8.93,8.93,0,0,1,1.78-5.14l2.69-3.84a5,5,0,0,0,.92-2.34,4.78,4.78,0,0,0-3.36-5.1V22a10.23,10.23,0,0,1,4.63-8.51,4,4,0,0,1-.17.61,5.73,5.73,0,0,0,1.08,6.15A5.53,5.53,0,0,0,38.21,22C41.94,22,45,17.72,45,12.49S41.94,3,38.21,3ZM12.76,19.26a4.22,4.22,0,0,1-3,1.35c-3,0-5.41-3.64-5.41-8.12S6.8,4.37,9.79,4.37a4.22,4.22,0,0,1,3,1.35,4.38,4.38,0,0,1,.78,4.7,6,6,0,0,0,0,4.13A4.39,4.39,0,0,1,12.76,19.26Zm1.82-7.41a4.17,4.17,0,0,1,.22-.94c.05-.13.08-.27.13-.41A12.86,12.86,0,0,1,22,22V26H20.62V22A11.59,11.59,0,0,0,14.58,11.86ZM29.89,28.53a3.41,3.41,0,0,1,.86,2.68,3.71,3.71,0,0,1-.68,1.7l-2.7,3.85a10.25,10.25,0,0,0-2,5.9v1H22.65v-1a10.27,10.27,0,0,0-2-5.92L17.85,32.8a3.47,3.47,0,0,1-.26-3.51,3.55,3.55,0,0,1,3.21-1.9h6.53A3.45,3.45,0,0,1,29.89,28.53ZM27.38,22V26H26V22a12.86,12.86,0,0,1,7-11.46c0,.14.08.27.13.41a4.16,4.16,0,0,1,.22.94A11.59,11.59,0,0,0,27.38,22Zm10.83-1.35a4.22,4.22,0,0,1-3-1.35,4.38,4.38,0,0,1-.78-4.7,6,6,0,0,0,0-4.13,4.39,4.39,0,0,1,.78-4.7,4.22,4.22,0,0,1,3-1.35c3,0,5.41,3.64,5.41,8.12S41.2,20.62,38.21,20.62Z"/><path class="cls-2" d="M35.51,7.76V9.11c1.1,0,2,1.55,2,3.38s-.93,3.38-2,3.38v1.35c1.9,0,3.38-2.08,3.38-4.74S37.4,7.76,35.51,7.76Z"/><path class="cls-2" d="M9.11,12.49c0,2.66,1.49,4.74,3.38,4.74V15.88c-1.1,0-2-1.55-2-3.38s.93-3.38,2-3.38V7.76C10.6,7.76,9.11,9.84,9.11,12.49Z"/><path class="cls-2" d="M24,34a9.39,9.39,0,0,0-4.54-4.93l-.57-.29L18.28,30l.57.29a8,8,0,0,1,4.47,7.23h1.35a8,8,0,0,1,4.47-7.23l.57-.29-.61-1.21-.57.29A9.38,9.38,0,0,0,24,34Z"/></g></g></svg>