<svg xmlns="http://www.w3.org/2000/svg" viewBox="0 0 48 48"><defs><style>.cls-1{fill:none;}.cls-2{fill:#1874c6;}</style></defs><title>Ресурс 22outline</title><g id="Слой_2" data-name="Слой 2"><g id="Icon"><rect class="cls-1" width="48" height="48"/><path class="cls-2" d="M11.22,27.44l-1.35-.11c0,.18-.34,4.38,2,7a6.15,6.15,0,0,0,4.74,1.91V34.83a4.85,4.85,0,0,1-3.74-1.47C10.93,31.24,11.21,27.48,11.22,27.44Z"/><path class="cls-2" d="M8.88,22H7.15v8.8a8.13,8.13,0,0,0,7.45,8.09v2.53A1.57,1.57,0,0,0,16.17,43H32a1.53,1.53,0,0,0,1.53-1.53V38.86A8.13,8.13,0,0,0,41,30.77V22H34.52l4.24-4.24c.45-.36,3.5-2.83,4.09-3.41a4.36,4.36,0,0,0,.21-6.16l-.21-.21a4.35,4.35,0,0,0-6.15-.22l-.22.22c-.59.59-3.06,3.65-3.41,4.09L23.13,22h-2.8a10.16,10.16,0,0,0,5.11-8.8V5.72A.68.68,0,0,0,24.76,5H23.41a10.17,10.17,0,0,0-9.85,7.72A10.16,10.16,0,0,0,4.45,7.07a.68.68,0,0,0-.68.68v5.42A10.16,10.16,0,0,0,8.88,22ZM32.21,41.61H16V38.9H32.21ZM37.43,8.9a3,3,0,0,1,4.3-.16l.16.16a3,3,0,0,1,.2,4.26l-.2.2c-.4.4-2.38,2-3.54,3l-3.88-3.88C35.41,11.29,37,9.3,37.43,8.9Zm-3.86,4.54,3.78,3.78L36.27,18.3l-3.78-3.78Zm-2,2,3.78,3.78-2.43,2.43L29.1,17.91Zm-3.39,3.39L31.25,22H25Zm11.51,4.46v7.45a6.78,6.78,0,0,1-6.77,6.77H15.28a6.78,6.78,0,0,1-6.77-6.77V23.32ZM14.6,15.2a8.81,8.81,0,0,1,8.8-8.8h.68v6.77a8.81,8.81,0,0,1-8.8,8.8H14.6v-.33c1.27-.92,6.14-4.81,6.77-10.43L20,11.06c-.47,4.19-3.71,7.42-5.42,8.85ZM5.12,8.45a8.81,8.81,0,0,1,8.13,8.78v2.83A14.1,14.1,0,0,1,8.47,13.6l-1.27.47a15,15,0,0,0,6.05,7.61v.26a8.81,8.81,0,0,1-8.13-8.78Z"/><rect class="cls-2" x="39.38" y="9.78" width="1.92" height="1.35" transform="translate(4.42 31.58) rotate(-45)"/><rect class="cls-2" x="37.35" y="11.81" width="1.92" height="1.35" transform="translate(2.39 30.74) rotate(-45)"/></g></g></svg>